Coordinates
version=1
nRows=8
nColumns=40
inDegrees=yes

Units are S.I. units (second, meters, Newtons, ...)
Angles are in degrees.

endheader
time	pelvis_tilt	pelvis_list	pelvis_rotation	pelvis_tx	pelvis_ty	pelvis_tz	hip_flexion_r	hip_adduction_r	hip_rotation_r	knee_angle_r	knee_angle_r_beta	ankle_angle_r	subtalar_angle_r	mtp_angle_r	hip_flexion_l	hip_adduction_l	hip_rotation_l	knee_angle_l	knee_angle_l_beta	ankle_angle_l	subtalar_angle_l	mtp_angle_l	lumbar_extension	lumbar_bending	lumbar_rotation	arm_flex_r	arm_add_r	arm_rot_r	elbow_flex_r	pro_sup_r	wrist_flex_r	wrist_dev_r	arm_flex_l	arm_add_l	arm_rot_l	elbow_flex_l	pro_sup_l	wrist_flex_l	wrist_dev_l
     23.50914286	     -2.33953686	     -5.24101521	     -1.53393834	      1.07383358	      0.93805496	      0.40421831	     27.57972113	     -5.07833301	    -13.68026136	     14.75207713	     14.75207713	     -0.28250248	      2.72968370	      4.57746743	     11.60605036	     -6.71618030	    -14.32158339	     19.22952919	     19.22952919	     13.90586973	      0.50988020	     -7.01195559	    -11.19086450	     -0.26567835	     -2.53843351	     -9.39547784	    -15.19048587	     -0.08322100	     27.94392458	     46.53234031	      0.00000000	      0.00000000	     18.87314056	    -16.49835513	     -0.87176502	     33.45882933	     45.68858715	      0.00000000	      0.00000000
     23.52328571	     -2.27143159	     -5.07500609	     -1.75898840	      1.07294097	      0.93786690	      0.40452261	     27.30016088	     -5.06072691	    -14.43570063	     12.01623473	     12.01623473	      0.00158562	      5.74777489	      6.32419433	     11.05896080	     -6.56121461	    -14.67096896	     19.06974412	     19.06974412	     14.13932667	      0.67403527	     -7.15227939	    -11.33659221	     -0.51076788	     -2.46492227	     -9.86539850	    -15.12400550	     -0.65329968	     27.67779886	     46.57509811	      0.00000000	      0.00000000	     19.12764402	    -16.50915246	     -0.94129252	     34.39680689	     45.71283419	      0.00000000	      0.00000000
     23.53742857	     -2.41561474	     -4.93167087	     -2.00263132	      1.07179057	      0.93755243	      0.40493654	     27.52279145	     -5.06479849	    -15.03899930	     10.24389532	     10.24389532	      1.43815603	      8.36826336	     11.61519410	     10.74820858	     -6.40688448	    -14.90192273	     18.86544932	     18.86544932	     14.26697424	      0.66661991	     -7.29161575	    -11.28912920	     -0.71164667	     -2.60476044	    -10.03703303	    -14.75576566	     -3.14654565	     27.39843708	     46.73047008	      0.00000000	      0.00000000	     18.86735502	    -16.64638044	     -1.21090337	     36.12343670	     45.80162088	      0.00000000	      0.00000000
     23.55157143	     -2.51228090	     -4.81274249	     -2.22456988	      1.07080324	      0.93719644	      0.40554643	     27.55505592	     -4.94848588	    -15.13074072	      8.58050306	      8.58050306	      1.26425046	      9.84401967	     12.11887185	     10.39068922	     -6.29644199	    -15.13025252	     18.69443073	     18.69443073	     14.48828364	      0.69849050	     -7.36622313	    -11.22406799	     -0.87917094	     -2.58046259	    -10.26630051	    -14.68314002	     -3.27874878	     27.34340446	     46.73529353	      0.00000000	      0.00000000	     19.16064139	    -16.57530344	     -1.25780318	     36.44677235	     45.81763820	      0.00000000	      0.00000000
     23.56571429	     -2.51075823	     -4.72189581	     -2.44572682	      1.06992756	      0.93708312	      0.40619368	     27.59930538	     -4.94293230	    -15.67720215	      7.74014746	      7.74014746	      1.60858027	     11.69249336	     13.62077649	      9.85486834	     -6.19378862	    -15.35446258	     18.40041506	     18.40041506	     14.60966271	      0.72631908	     -7.56344897	    -11.29111904	     -0.99103343	     -2.56465340	    -10.44711114	    -14.60618452	     -4.10926104	     27.78153691	     46.74652206	      0.00000000	      0.00000000	     19.17402683	    -16.49610726	     -1.64829561	     37.41124225	     45.89587405	      0.00000000	      0.00000000
     23.57985714	     -2.61699775	     -4.67234528	     -2.66979100	      1.06904520	      0.93676273	      0.40705798	     27.79731284	     -4.84750771	    -15.48729609	      7.46967562	      7.46967562	      1.56802261	     12.02673764	     13.70012380	      9.51635294	     -6.16856801	    -15.51806608	     18.26561598	     18.26561598	     14.83542767	      0.67023716	     -7.61435506	    -11.18977142	     -1.05505218	     -2.58266697	    -10.30012234	    -14.55699134	     -4.13674952	     27.87888096	     46.74378199	      0.00000000	      0.00000000	     19.39071922	    -16.45434453	     -1.66878597	     37.56667026	     45.90336361	      0.00000000	      0.00000000
     23.59400000	     -2.70699980	     -4.66488282	     -2.79123201	      1.06830095	      0.93652545	      0.40783481	     27.82132069	     -4.77977141	    -15.43389455	      7.50527339	      7.50527339	      1.43493432	     12.11308603	     13.73870024	      9.19814348	     -6.18311428	    -15.58335163	     18.18996583	     18.18996583	     15.09348627	      0.61637130	     -7.68540660	    -11.05722847	     -1.04377781	     -2.66631997	    -10.22719419	    -14.51615641	     -4.14376260	     27.93616452	     46.74190326	      0.00000000	      0.00000000	     19.51263583	    -16.37266222	     -1.66406174	     37.65175756	     45.90517352	      0.00000000	      0.00000000
     23.60814286	     -2.54615828	     -4.51897338	     -3.04763740	      1.06799253	      0.93684600	      0.40874112	     27.63938840	     -4.87535498	    -15.34099509	      8.21617850	      8.21617850	      1.40899524	     12.11363056	     13.44503118	      8.13767296	     -5.92973660	    -15.91289372	     17.30234524	     17.30234524	     15.16658563	      0.92543282	     -7.61680467	    -11.23361499	     -1.16690982	     -2.61023432	     -9.95011991	    -14.47818928	     -4.28831689	     28.48406097	     46.72490921	      0.00000000	      0.00000000	     19.50944125	    -16.22824428	     -1.84203047	     38.10476247	     45.93197603	      0.00000000	      0.00000000
